<svg width="920" height="720" viewBox="0 0 920 720" fill="none" xmlns="http://www.w3.org/2000/svg">
  <rect width="920" height="720" fill="#eef2f7"/>
  <rect x="80" y="34" width="760" height="652" rx="28" fill="#fff" stroke="#d9e1ee"/>
  <rect x="112" y="66" width="696" height="54" rx="16" fill="#f8fafc"/>
  <circle cx="142" cy="93" r="13" fill="#ea4335"/>
  <circle cx="172" cy="93" r="13" fill="#fbbc05"/>
  <circle cx="202" cy="93" r="13" fill="#34a853"/>
  <text x="232" y="100" font-family="Arial, sans-serif" font-size="20" font-weight="700" fill="#1f2937">Gmail 모바일 메일 미리보기</text>
  <rect x="260" y="144" width="400" height="520" rx="30" fill="#f8fafc" stroke="#cbd5e1" stroke-width="2"/>
  <rect x="278" y="166" width="364" height="478" rx="22" fill="#ffffff"/>
  <rect x="278" y="166" width="364" height="78" rx="22" fill="#173b7a"/>
  <text x="460" y="199" text-anchor="middle" font-family="Arial, sans-serif" font-size="19" font-weight="700" fill="#ffffff">오늘의 날씨 알림</text>
  <text x="460" y="222" text-anchor="middle" font-family="Arial, sans-serif" font-size="12" fill="#dbeafe">GS강동자이아파트 · 05월 07일 저녁 예보</text>
  <text x="304" y="274" font-family="Arial, sans-serif" font-size="15" font-weight="700" fill="#111827">안녕하세요, 희승님.</text>
  <text x="304" y="297" font-family="Arial, sans-serif" font-size="12" fill="#4b5563">외출 전에 필요한 날씨와 준비물을 정리했어요.</text>
  <rect x="304" y="320" width="312" height="104" fill="#eef5ff" stroke="#c7dcff"/>
  <text x="460" y="353" text-anchor="middle" font-family="Arial, sans-serif" font-size="24" font-weight="700" fill="#111827">흐림</text>
  <text x="460" y="377" text-anchor="middle" font-family="Arial, sans-serif" font-size="12" fill="#4b5563">강수 없음 / 강수확률 30% / 습도 90%</text>
  <text x="322" y="405" font-family="Arial, sans-serif" font-size="12" fill="#1e3a8a">흐린 하늘이 이어질 수 있어요. 차분한 톤의</text>
  <text x="322" y="421" font-family="Arial, sans-serif" font-size="12" fill="#1e3a8a">옷차림과 실내 일정이 잘 맞습니다.</text>
  <rect x="304" y="438" width="312" height="78" fill="#f0fdfa" stroke="#99f6e4"/>
  <text x="322" y="465" font-family="Arial, sans-serif" font-size="13" font-weight="700" fill="#115e59">외출 점수</text>
  <text x="322" y="499" font-family="Arial, sans-serif" font-size="30" font-weight="700" fill="#0f766e">94점</text>
  <text x="392" y="499" font-family="Arial, sans-serif" font-size="14" font-weight="700" fill="#115e59">· 좋음</text>
  <rect x="304" y="530" width="312" height="76" fill="#fff7ed" stroke="#fed7aa"/>
  <text x="322" y="556" font-family="Arial, sans-serif" font-size="13" font-weight="700" fill="#9a3412">오늘의 준비</text>
  <text x="322" y="579" font-family="Arial, sans-serif" font-size="12" fill="#5f370e">옷차림: 가디건, 자켓, 얇은 니트</text>
  <text x="322" y="598" font-family="Arial, sans-serif" font-size="12" fill="#5f370e">우산: 작은 우산이 있으면 안심돼요</text>
</svg>
