<svg width="920" height="460" viewBox="0 0 920 460" fill="none" xmlns="http://www.w3.org/2000/svg">
  <rect width="920" height="460" fill="#eef2f7"/>
  <path d="M642 144c20-44 96-35 108 15 39 4 67 31 67 67 0 39-33 69-78 69H578c-47 0-82-30-82-72 0-40 33-72 78-72 14 0 30 4 68-7Z" fill="#94a3b8"/>
  <rect x="80" y="74" width="760" height="312" rx="26" fill="#ffffff" stroke="#cbd5e1"/>
  <text x="128" y="134" font-family="Arial, sans-serif" font-size="30" font-weight="800" fill="#334155">흐린 날씨</text>
  <text x="128" y="174" font-family="Arial, sans-serif" font-size="18" fill="#475569">차분한 톤의 옷차림과 실내 일정이 잘 맞는 날이에요.</text>
  <rect x="128" y="218" width="188" height="96" rx="14" fill="#f8fafc" stroke="#cbd5e1"/>
  <text x="152" y="254" font-family="Arial, sans-serif" font-size="15" font-weight="700" fill="#334155">외출 점수</text>
  <text x="152" y="294" font-family="Arial, sans-serif" font-size="34" font-weight="800" fill="#475569">82점</text>
  <rect x="346" y="218" width="332" height="96" rx="14" fill="#f8fafc" stroke="#cbd5e1"/>
  <text x="370" y="254" font-family="Arial, sans-serif" font-size="15" font-weight="700" fill="#334155">추천 준비</text>
  <text x="370" y="286" font-family="Arial, sans-serif" font-size="16" fill="#475569">가디건, 자켓, 차분한 컬러의 데일리룩</text>
</svg>
